<?xml version="1.0" encoding="UTF-8"?>
<svg version="1.1" xmlns="http://www.w3.org/2000/svg" width="1024" height="1024">
<path d="M0 0 C337.92 0 675.84 0 1024 0 C1024 337.92 1024 675.84 1024 1024 C686.08 1024 348.16 1024 0 1024 C0 686.08 0 348.16 0 0 Z " fill="#000B1D" transform="translate(0,0)"/>
<path d="M0 0 C1.07677002 -0.0103125 2.15354004 -0.020625 3.26293945 -0.03125 C13.77470445 0.08459099 23.4650414 2.205809 32.8125 7.0625 C33.48804932 7.40949951 34.16359863 7.75649902 34.85961914 8.11401367 C52.8171359 17.66788207 64.02708516 33.24764612 70.125 52.4375 C72.11540304 59.22217818 72.89759893 65.58361036 72.86352539 72.64599609 C72.86367142 73.44666504 72.86381744 74.24733398 72.8639679 75.07226562 C72.8632748 77.70185109 72.85551076 80.3313645 72.84765625 82.9609375 C72.84578993 84.79082195 72.84436704 86.62070691 72.84336853 88.45059204 C72.83956023 93.25426628 72.8297444 98.05791003 72.81866455 102.86157227 C72.80841411 107.76838773 72.80386314 112.67520815 72.79882812 117.58203125 C72.78812056 127.20053419 72.77106447 136.81901455 72.75 146.4375 C74.87563103 146.32373383 77.0005261 146.19614369 79.125 146.0625 C80.90003906 145.95808594 80.90003906 145.95808594 82.7109375 145.8515625 C85.85562319 145.73532654 85.85562319 145.73532654 87.75 143.4375 C90.75 143.1875 90.75 143.1875 93.75 143.4375 C96.20225513 145.88975513 96.00932668 146.56680373 96.04052734 149.93701172 C96.05328705 150.87334442 96.06604675 151.80967712 96.07919312 152.77438354 C96.08141876 153.79500885 96.08364441 154.81563416 96.0859375 155.8671875 C96.0959227 157.45649582 96.0959227 157.45649582 96.10610962 159.07791138 C96.11626331 161.33594019 96.12092581 163.59399917 96.12060547 165.85205078 C96.12490354 169.23654401 96.16098138 172.61965075 96.19921875 176.00390625 C96.36735446 208.36772149 87.5023903 235.76863822 65.0625 259.625 C49.59972937 274.50700929 28.37393576 284.4375 6.75 284.4375 C6.75 292.3575 6.75 300.2775 6.75 308.4375 C9.43511719 308.37949219 12.12023437 308.32148437 14.88671875 308.26171875 C17.49468026 308.22269659 20.10260894 308.19235303 22.71069336 308.1628418 C24.51976132 308.1377361 26.32872822 308.10364405 28.13745117 308.06030273 C30.74162751 307.99947421 33.34446031 307.97125191 35.94921875 307.94921875 C36.75461594 307.92341232 37.56001312 307.8976059 38.38981628 307.87101746 C42.66318351 307.86889511 44.2693797 308.06460964 47.76489258 310.77661133 C49.75 313.4375 49.75 313.4375 50.3125 316.5 C49.59940639 320.22393328 48.79300741 321.18708019 45.75 323.4375 C42.77278181 323.83204138 40.16590769 323.98477452 37.18945312 323.95507812 C36.32722641 323.9620874 35.46499969 323.96909668 34.5766449 323.97631836 C31.72785187 323.99391689 28.88005304 323.98226912 26.03125 323.96875 C24.05114552 323.97144438 22.07104233 323.97532635 20.09094238 323.98034668 C15.94152222 323.98624424 11.79244653 323.97767038 7.64306641 323.95898438 C2.32301667 323.93619477 -2.99622592 323.94931646 -8.31624603 323.97327423 C-12.40490811 323.98772517 -16.49337868 323.98312943 -20.58204651 323.97276306 C-22.54366654 323.97009383 -24.50530393 323.97337242 -26.46690369 323.98268127 C-29.2082223 323.99283523 -31.94823206 323.97736226 -34.68945312 323.95507812 C-35.50100357 323.96317505 -36.31255402 323.97127197 -37.1486969 323.97961426 C-40.72797574 323.92568299 -42.83200433 323.74662371 -45.74987793 321.58874512 C-47.25 319.4375 -47.25 319.4375 -47.8125 316.5 C-47.0420544 312.30535176 -45.59731558 311.04635306 -42.25 308.4375 C-39.37424954 307.77250866 -36.60675205 307.85200943 -33.66796875 307.94921875 C-32.94565063 307.95425415 -32.22333252 307.95928955 -31.47912598 307.96447754 C-28.79817634 307.99050618 -26.11779553 308.06031387 -23.4375 308.125 C-17.435625 308.228125 -11.43375 308.33125 -5.25 308.4375 C-5.25 292.5975 -5.25 276.7575 -5.25 260.4375 C-8.55 260.1075 -11.85 259.7775 -15.25 259.4375 C-35.86806665 254.35646932 -52.82900206 242.03986975 -64.4375 224.3125 C-71.24698485 212.90527243 -74.43307766 200.78329845 -74.34765625 187.5390625 C-74.3462413 186.70410248 -74.34482635 185.86914246 -74.34336853 185.00888062 C-74.33780174 182.36004958 -74.32525547 179.7113052 -74.3125 177.0625 C-74.3074807 175.25911581 -74.30291855 173.45573029 -74.29882812 171.65234375 C-74.2878432 167.24736279 -74.27060163 162.84244606 -74.25 158.4375 C-76.19608833 158.53804977 -78.14128789 158.65591855 -80.0859375 158.78125 C-81.71088135 158.87696289 -81.71088135 158.87696289 -83.36865234 158.97460938 C-86.4943103 159.19789512 -86.4943103 159.19789512 -88.875 161.9375 C-89.32875 162.7625 -89.7825 163.5875 -90.25 164.4375 C-93.45173254 166.03836627 -96.77577059 165.93667089 -100.25 165.4375 C-103.0600346 163.64386089 -104.75940468 162.41869065 -106.25 159.4375 C-106.82031437 154.76279208 -106.68841751 151.31433502 -104.5625 147.0625 C-101.14973979 143.18855598 -98.93406272 141.61793529 -93.75 141.0625 C-90.05024712 141.45890209 -88.18144468 142.19580701 -85.25 144.4375 C-84.755 145.4275 -84.755 145.4275 -84.25 146.4375 C-81.89400765 146.90501788 -81.89400765 146.90501788 -79.1875 147.0625 C-78.26839844 147.13726562 -77.34929687 147.21203125 -76.40234375 147.2890625 C-75.33693359 147.36253906 -75.33693359 147.36253906 -74.25 147.4375 C-74.25888245 146.4059227 -74.26776489 145.3743454 -74.2769165 144.31150818 C-74.35844677 134.53000725 -74.41817688 124.74857639 -74.45724869 114.96681118 C-74.47801206 109.93939856 -74.50612092 104.912263 -74.55175781 99.88500977 C-74.59562092 95.02202238 -74.6192214 90.15929936 -74.62950897 85.29612923 C-74.63682846 83.45241199 -74.65111876 81.60870716 -74.67292023 79.76510429 C-74.83721656 65.27895723 -73.41719221 52.16719201 -66.5 39.125 C-66.15565918 38.46040771 -65.81131836 37.79581543 -65.45654297 37.11108398 C-56.62590845 20.58426436 -42.90593908 9.68978426 -25.64453125 3.05078125 C-17.13759809 0.49601207 -8.8617386 0.07034621 0 0 Z " fill="#007FA6" transform="translate(263.25,334.5625)"/>
<path d="M0 0 C3.22763661 2.10235514 6.1184992 4.44766889 9 7 C9.76441406 7.6703125 10.52882813 8.340625 11.31640625 9.03125 C22.52885245 19.50378858 28.87842156 33.28177801 29.49447632 48.66546631 C29.51182837 50.99013071 29.50802597 53.31502515 29.48583984 55.63964844 C29.48963654 56.92285477 29.49343323 58.2060611 29.49734497 59.52815247 C29.50691445 63.00122112 29.49189575 66.47376368 29.47143888 69.94676876 C29.4536722 73.60555714 29.45739665 77.26433399 29.4581604 80.92315674 C29.45629674 87.05904781 29.43905604 93.19473912 29.41162109 99.33056641 C29.38012414 106.40050184 29.36962743 113.47021948 29.3710922 120.54022002 C29.3724479 128.10899653 29.35854682 135.67769042 29.34019899 143.24644184 C29.33595916 145.41081627 29.33451981 147.57517717 29.33372116 149.73955536 C29.33132019 153.78578242 29.31182424 157.83175798 29.29052734 161.87792969 C29.29143372 163.06363052 29.29234009 164.24933136 29.29327393 165.47096252 C29.14973388 184.19344766 22.93705601 199.18865728 9.62109375 212.3515625 C-4.29750398 224.22937737 -20.91072655 229.25856973 -39 228 C-43.92662644 227.36492706 -47.83477464 226.77681691 -52 224 C-50.89591797 223.36384766 -50.89591797 223.36384766 -49.76953125 222.71484375 C-39.37002676 216.46415083 -35.37364465 210.62584406 -32 199 C-31.09299835 194.44151195 -30.8494071 190.07825982 -30.79467773 185.43408203 C-30.77982834 184.3354911 -30.77982834 184.3354911 -30.76467896 183.21470642 C-30.73328573 180.81244046 -30.70839502 178.41015478 -30.68359375 176.0078125 C-30.66300503 174.33486439 -30.64200807 172.66192125 -30.62062073 170.98898315 C-30.56559808 166.59965055 -30.51610199 162.21027255 -30.46777344 157.82086182 C-30.41741321 153.33626293 -30.36180316 148.85172944 -30.30664062 144.3671875 C-30.19930155 135.5781804 -30.09780339 126.78911836 -30 118 C-29.31728027 117.88027832 -28.63456055 117.76055664 -27.93115234 117.63720703 C-27.03348145 117.47075684 -26.13581055 117.30430664 -25.2109375 117.1328125 C-24.32196777 116.97184082 -23.43299805 116.81086914 -22.51708984 116.64501953 C-18.66364665 115.65755135 -16.65938612 113.91266098 -14 111 C-13.32068586 109.59907979 -12.67549699 108.18118127 -12.0625 106.75 C-10.50675926 103.34033489 -10.30663445 103.12265378 -6.5625 101.625 C-3 102 -3 102 -0.1875 104.5 C2.17804761 107.81176665 3.07485586 111.06813738 4 115 C5.11836224 116.34404775 5.11836224 116.34404775 8 116.125 C10.88163776 116.34404775 10.88163776 116.34404775 12 115 C12.86367241 108.52953618 11.79128775 103.3264104 8 98 C4.13131386 93.92443225 0.2864675 91.25884538 -5.3125 90.625 C-11.11286033 91.21486715 -15.01939741 93.61491557 -18.75 97.9375 C-21.03394085 100.86523259 -21.03394085 100.86523259 -22.4375 103.875 C-22.953125 104.57625 -23.46875 105.2775 -24 106 C-27.09765625 106.1328125 -27.09765625 106.1328125 -30 106 C-30.00364563 104.87184372 -30.00729126 103.74368744 -30.01104736 102.5813446 C-30.04809396 91.91539581 -30.10597195 81.24973315 -30.18390274 70.58400249 C-30.2233014 65.10148156 -30.25552721 59.61911942 -30.27099609 54.13647461 C-30.28621279 48.83890386 -30.3207472 43.54176989 -30.36830902 38.2443943 C-30.38307122 36.22998681 -30.39103803 34.21551694 -30.39188385 32.20105553 C-30.28435194 12.98854838 -30.28435194 12.98854838 -40 -3 C-40.66 -3.33 -41.32 -3.66 -42 -4 C-42 -4.66 -42 -5.32 -42 -6 C-28.92438613 -9.9545759 -11.85456223 -6.27001506 0 0 Z " fill="#000C1D" transform="translate(294,354)"/>
<path d="M0 0 C6.42136834 6.27203419 8.1394308 12.67910771 8.25 21.4375 C8.27199463 22.53130981 8.27199463 22.53130981 8.29443359 23.6472168 C8.22551342 27.25639208 7.76818726 29.49046238 5.90234375 32.6015625 C3.56634907 34.73568109 2.7841789 35.29031942 -0.3125 35.1875 C-3.39243579 34.9982302 -4.20702304 34.70613612 -6.75 32.75 C-9.10007529 29.55389761 -9.52349869 27.41672892 -9.875 23.5 C-9.95878906 22.58992188 -10.04257813 21.67984375 -10.12890625 20.7421875 C-10.18949219 20.04351562 -10.25007813 19.34484375 -10.3125 18.625 C-13.71570934 17.94826553 -13.71570934 17.94826553 -17.3125 17.625 C-19.94784505 20.26034505 -19.64100126 21.57659993 -19.6875 25.25 C-19.57293239 30.87729119 -18.86543351 35.16317652 -15.3125 39.625 C-10.23316074 44.24258114 -6.01487247 45.76158465 0.875 45.6875 C1.96167969 45.67847656 3.04835937 45.66945313 4.16796875 45.66015625 C5.41513672 45.64275391 5.41513672 45.64275391 6.6875 45.625 C6.75761272 65.19203546 6.81049928 84.75904539 6.84293652 104.32618046 C6.85839869 113.41175094 6.8794758 122.49724332 6.91381836 131.58276367 C6.9437406 139.50264442 6.96307973 147.4224686 6.96976548 155.34240431 C6.97367296 159.5351092 6.98284251 163.72765227 7.00469017 167.92030525 C7.02509998 171.86913968 7.03132475 175.8177461 7.02682304 179.76662827 C7.02764624 181.21338962 7.03358519 182.66015884 7.04511642 184.10687447 C7.16277052 199.63352821 7.16277052 199.63352821 1.8203125 205.76953125 C1.15773437 206.31996094 0.49515625 206.87039063 -0.1875 207.4375 C-1.17363281 208.28248047 -1.17363281 208.28248047 -2.1796875 209.14453125 C-7.8077807 213.05121133 -13.63587858 213.67525505 -20.3125 212.625 C-28.88308878 208.63321892 -35.03456402 199.24828387 -38.3125 190.625 C-43.44510774 173.49195352 -43.44510774 173.49195352 -43.42602539 164.7331543 C-43.42594986 163.57232834 -43.42587433 162.41150238 -43.42579651 161.21549988 C-43.42063522 159.97262711 -43.41547394 158.72975433 -43.41015625 157.44921875 C-43.4087413 156.16892288 -43.40732635 154.88862701 -43.40586853 153.5695343 C-43.40206397 150.1780296 -43.39225143 146.78656823 -43.38116455 143.39508057 C-43.37090597 139.92940863 -43.36636141 136.46372964 -43.36132812 132.99804688 C-43.35030755 126.20701252 -43.3335757 119.41601019 -43.3125 112.625 C-41.26171875 112.39713542 -39.2109375 112.16927083 -37.16015625 111.94140625 C-35.30109771 111.80613386 -35.30109771 111.80613386 -34.3125 110.625 C-34.14583333 107.125 -34.14583333 107.125 -34.3125 103.625 C-36.02876405 101.70408908 -36.02876405 101.70408908 -43.3125 101.625 C-43.3125 95.025 -43.3125 88.425 -43.3125 81.625 C-41.435625 81.563125 -39.55875 81.50125 -37.625 81.4375 C-32.58250104 81.03767997 -32.58250104 81.03767997 -28.375 78.3125 C-27.694375 77.425625 -27.01375 76.53875 -26.3125 75.625 C-23.9375 73.25 -23.9375 73.25 -21.3125 71.625 C-17.52842779 71.69138723 -15.22088979 71.93034899 -12.1875 74.25 C-10.33559485 75.92691886 -10.33559485 75.92691886 -7.625 75.375 C-5.37480031 74.83879042 -5.37480031 74.83879042 -4.3125 73.625 C-4.24579386 70.15628084 -4.33533885 67.65051026 -6.8125 65.05078125 C-11.27719392 61.90929299 -15.34736475 60.84770124 -20.78125 61.1328125 C-25.14911031 61.98211867 -28.81217478 63.90491087 -32.3125 66.625 C-32.93318359 67.70007813 -32.93318359 67.70007813 -33.56640625 68.796875 C-35.3125 70.625 -35.3125 70.625 -37.27709961 70.87988281 C-39.29068809 70.87545977 -41.3032219 70.75675594 -43.3125 70.625 C-43.34157084 67.04168375 -43.35932263 63.45839792 -43.375 59.875 C-43.38337891 58.85921875 -43.39175781 57.8434375 -43.40039062 56.796875 C-43.40361328 55.8171875 -43.40683594 54.8375 -43.41015625 53.828125 C-43.41539307 52.92739258 -43.42062988 52.02666016 -43.42602539 51.09863281 C-43.32012312 48.79110196 -42.96382813 46.83365595 -42.3125 44.625 C-41.39726562 44.57601562 -40.48203125 44.52703125 -39.5390625 44.4765625 C-38.35054687 44.40179688 -37.16203125 44.32703125 -35.9375 44.25 C-34.75414062 44.18039062 -33.57078125 44.11078125 -32.3515625 44.0390625 C-29.20687681 43.92282654 -29.20687681 43.92282654 -27.3125 41.625 C-27.06246036 38.08321402 -27.06246036 38.08321402 -27.3125 34.625 C-29.05206658 32.88543342 -31.5061622 33.25309614 -33.875 33.0625 C-34.88691406 32.97871094 -35.89882812 32.89492188 -36.94140625 32.80859375 C-38.11509766 32.71771484 -38.11509766 32.71771484 -39.3125 32.625 C-37.91572819 20.83200257 -30.09221613 9.9908837 -20.93359375 2.7421875 C-14.01207108 -1.91548816 -7.82809181 -3.2493966 0 0 Z " fill="#010D1C" transform="translate(244.3125,356.375)"/>
<path d="M0 0 C6.6 0 13.2 0 20 0 C27.74807382 21.28482411 35.49516154 42.56995587 43.1875 63.875 C43.4487265 64.59828491 43.709953 65.32156982 43.97909546 66.06677246 C47.33887892 75.37095216 50.67750503 84.68243642 54 94 C48.06 94 42.12 94 36 94 C29 76.86206897 29 76.86206897 29 72 C16.79 72.33 4.58 72.66 -8 73 C-10.31 79.93 -12.62 86.86 -15 94 C-20.61 94 -26.22 94 -32 94 C-30.58216046 86.88457156 -28.47482067 80.22501412 -26.03515625 73.3984375 C-25.64547668 72.29489929 -25.25579712 71.19136108 -24.85430908 70.05438232 C-23.5953192 66.49281471 -22.32901402 62.9338981 -21.0625 59.375 C-20.19835168 56.93489599 -19.33466483 54.49462851 -18.47143555 52.05419922 C-16.3659549 46.10539508 -14.25474335 40.1586461 -12.14135742 34.21264648 C-10.52340352 29.6584956 -8.90994034 25.10275916 -7.296875 20.546875 C-4.87034758 13.69585704 -2.43756746 6.8470996 0 0 Z " fill="#FBFBFC" transform="translate(440,398)"/>
<path d="M0 0 C6.80282949 5.54554087 11.25713248 12.53579689 12.4921875 21.3046875 C13.26594089 33.96875841 13.65725757 46.22048065 5.21484375 56.48828125 C-2.21684433 64.32441494 -10.21596607 67.34810013 -20.9453125 67.7421875 C-30.93663376 67.44867042 -38.42715292 64.39362709 -45.6328125 57.4453125 C-54.15946402 47.71071868 -54.29164966 34.79158642 -53.69433594 22.52197266 C-52.92209034 13.34195362 -48.44116288 6.20692423 -41.5078125 0.3046875 C-28.81097381 -7.77336208 -12.70963 -8.59186826 0 0 Z " fill="#FBFCFC" transform="translate(692.5078125,425.6953125)"/>
<path d="M0 0 C8.50858266 6.07966201 12.69707913 12.86714817 15 23 C15 27.62 15 32.24 15 37 C-0.51 37 -16.02 37 -32 37 C-30.2498093 47.74212802 -30.2498093 47.74212802 -23.3125 54.875 C-17.81223641 56.74301405 -13.13541587 56.80581731 -7.6875 54.75 C-4.95970645 53.17220331 -4.95970645 53.17220331 -3.31640625 50.90625 C-0.09799958 48.25771298 2.78452339 48.55509945 6.75 48.75 C7.44738281 48.76804687 8.14476562 48.78609375 8.86328125 48.8046875 C10.57611539 48.85161446 12.28823824 48.92335395 14 49 C11.95306524 55.91824585 8.64458752 60.72703144 2.45703125 64.5859375 C-6.66103223 69.24598176 -16.6039176 70.87039656 -26.703125 68.31640625 C-28.9488975 67.37019791 -30.9355371 66.29232127 -33 65 C-34.04414062 64.41605469 -34.04414062 64.41605469 -35.109375 63.8203125 C-41.81921876 59.55729146 -45.35621166 52.62542504 -47.55566406 45.09838867 C-50.21620078 32.53393095 -48.26634564 19.79711445 -42.1875 8.6875 C-31.71365427 -4.18036761 -14.8143472 -8.50453265 0 0 Z " fill="#FAFAFB" transform="translate(866,424)"/>
<path d="M0 0 C5.61 0 11.22 0 17 0 C17.40726318 1.25208252 17.81452637 2.50416504 18.23413086 3.79418945 C19.78803557 8.57055622 21.34314363 13.34653048 22.89865112 18.12237549 C23.58928124 20.24318066 24.27965137 22.36407051 24.96975708 24.48504639 C29.92557776 39.72502901 29.92557776 39.72502901 35 54.92578125 C35.42031494 56.16996826 35.84062988 57.41415527 36.27368164 58.69604492 C37.03051568 60.92590313 37.79245013 63.15403895 38.56030273 65.38012695 C39.05445679 66.8355188 39.05445679 66.8355188 39.55859375 68.3203125 C39.84017334 69.13773926 40.12175293 69.95516602 40.41186523 70.79736328 C41 73 41 73 41 77 C41.66 77 42.32 77 43 77 C43.07605469 75.96101563 43.15210938 74.92203125 43.23046875 73.8515625 C43.95597166 68.12021481 45.84148508 62.77597798 47.6651001 57.3142395 C48.79519353 53.92912651 49.90117547 50.53609694 51.01171875 47.14453125 C51.24862427 46.42347702 51.48552979 45.70242279 51.72961426 44.95951843 C54.77151031 35.68494874 57.69420342 26.37263264 60.625 17.0625 C61.16309899 15.35528445 61.70126474 13.64808994 62.23950195 11.94091797 C63.4942236 7.96099509 64.74708131 3.98049253 66 0 C71.61 0 77.22 0 83 0 C80.95506853 7.75290217 78.6338291 15.34460505 76.0625 22.9375 C75.26409122 25.31242212 74.46592765 27.68742669 73.66796875 30.0625 C73.35167511 31.00179604 73.35167511 31.00179604 73.0289917 31.96006775 C71.33584744 36.98994988 69.65958429 42.0253228 67.98828125 47.0625 C62.78001181 62.75290495 57.52882515 78.41876549 52 94 C45.4 94 38.8 94 32 94 C24.56556901 73.54948843 17.23266985 53.07638379 10.19824219 32.484375 C8.94089998 28.82814274 7.66430426 25.17908421 6.3828125 21.53125 C5.96161133 20.32871582 5.54041016 19.12618164 5.10644531 17.88720703 C4.30467323 15.60047167 3.4995075 13.31492244 2.69042969 11.03076172 C2.33625977 10.01771973 1.98208984 9.00467773 1.6171875 7.9609375 C1.30378418 7.07196777 0.99038086 6.18299805 0.66748047 5.26708984 C0 3 0 3 0 0 Z " fill="#FAFBFB" transform="translate(556,398)"/>
<path d="M0 0 C4.95 0 9.9 0 15 0 C15.38671875 1.55847656 15.7734375 3.11695313 16.171875 4.72265625 C18.77719362 15.19672425 21.39221704 25.66266738 24.23828125 36.07421875 C24.92342499 38.70587341 25.49928725 41.32787951 26 44 C27.3799897 41.39335531 28.39335801 38.94340005 29.12915039 36.08935547 C29.32597916 35.3353244 29.52280792 34.58129333 29.7256012 33.80441284 C29.93087936 33.00012848 30.13615753 32.19584412 30.34765625 31.3671875 C30.56441513 30.53414093 30.78117401 29.70109436 31.00450134 28.84280396 C31.69472762 26.18794394 32.37899696 23.53159817 33.0625 20.875 C33.7503497 18.21147308 34.43948625 15.54829614 35.13121033 12.88577271 C35.56103031 11.23037855 35.98848043 9.57436692 36.41334534 7.91769409 C37.88826809 2.22346383 37.88826809 2.22346383 39 0 C43.29 0 47.58 0 52 0 C55.24696682 7.79679179 57.07931197 15.94102574 59.0625 24.125 C59.59049038 26.29253944 60.11993086 28.45969892 60.65220642 30.62619019 C61.13335112 32.58612238 61.60990241 34.54718056 62.08618164 36.50830078 C62.92412815 39.71009372 63.95340398 42.86021193 65 46 C68.63 30.82 72.26 15.64 76 0 C80.62 0 85.24 0 90 0 C86.68751239 13.57791953 82.99707245 27.0363246 79.25 40.5 C78.64174095 42.69135459 78.03366675 44.8827605 77.42578125 47.07421875 C75.9526475 52.3834055 74.4770268 57.69189505 73 63 C68.05 63 63.1 63 58 63 C54.72735633 53.70991473 52.2938916 44.18979021 49.75585938 34.68017578 C49.16035036 32.45268848 48.56082705 30.22631083 47.9609375 28 C47.77864594 27.31156006 47.59635437 26.62312012 47.40853882 25.91381836 C46.72513827 22.68886178 46.72513827 22.68886178 45 20 C44.55346069 21.79401245 44.55346069 21.79401245 44.09790039 23.62426758 C42.99394983 28.05815905 41.8884461 32.49166203 40.7824707 36.92504883 C40.30385588 38.84453933 39.82566332 40.76413517 39.34790039 42.68383789 C38.66142778 45.44184677 37.97344154 48.19947426 37.28515625 50.95703125 C37.07157974 51.81649857 36.85800323 52.67596588 36.63795471 53.56147766 C36.33775673 54.76238289 36.33775673 54.76238289 36.03149414 55.98754883 C35.85606583 56.6914827 35.68063751 57.39541656 35.49989319 58.12068176 C35.06249554 59.76505181 34.53807709 61.38576873 34 63 C29.05 63 24.1 63 19 63 C16.92261032 57.6134472 15.09309742 52.22803995 13.4765625 46.6875 C13.24850922 45.9155127 13.02045593 45.14352539 12.78549194 44.34814453 C12.0625724 41.899565 11.34352572 39.44987211 10.625 37 C9.68141256 33.79115642 8.73581873 30.58290997 7.7890625 27.375 C7.55874329 26.59286133 7.32842407 25.81072266 7.09112549 25.00488281 C5.29938675 18.94532521 3.42862398 12.91266252 1.49160767 6.89794922 C0 2.21333665 0 2.21333665 0 0 Z " fill="#F9FAFA" transform="translate(810,543)"/>
<path d="M0 0 C7.99414586 4.80185271 11.73927353 11.11795374 14.375 19.9375 C14.375 24.5575 14.375 29.1775 14.375 33.9375 C0.185 33.9375 -14.005 33.9375 -28.625 33.9375 C-26.07716758 43.27124459 -26.07716758 43.27124459 -20.625 49.9375 C-16.93484912 51.78257544 -12.66110076 51.2903493 -8.625 50.9375 C-4.51224091 49.39521534 -3.06719062 48.60078593 -0.625 44.9375 C2.00197064 44.71612607 4.38393964 44.65587975 7 44.75 C7.70640625 44.76353516 8.4128125 44.77707031 9.140625 44.79101562 C10.88574128 44.8263896 12.63046608 44.88019779 14.375 44.9375 C11.73311587 52.20268137 7.12262822 57.14195912 0.375 60.9375 C-7.34024995 64.01468061 -16.61852844 64.32998562 -24.64453125 62.09765625 C-31.73926035 58.86089044 -36.81755683 54.08335629 -39.94140625 46.91796875 C-44.0235027 34.92769938 -43.94360425 22.96227555 -38.40625 11.390625 C-30.52766273 -1.65281393 -13.87661731 -6.46163096 0 0 Z " fill="#FAFAFB" transform="translate(792.625,544.0625)"/>
<path d="M0 0 C7.3119051 4.6841892 10.9806345 10.96255028 13.65625 19.05859375 C14.48577465 23.78470131 14.25 28.64305197 14.25 33.44140625 C0.06 33.44140625 -14.13 33.44140625 -28.75 33.44140625 C-27.16430674 42.99357214 -27.16430674 42.99357214 -21.75 49.44140625 C-17.83000551 51.40140349 -13.0336767 50.79476308 -8.75 50.44140625 C-5.91431072 49.20079219 -4.39445908 48.31495875 -2.57421875 45.84765625 C0.28566563 43.64303445 2.90383032 44.15664929 6.4375 44.25390625 C8.34595703 44.29451172 8.34595703 44.29451172 10.29296875 44.3359375 C11.75669922 44.38814453 11.75669922 44.38814453 13.25 44.44140625 C10.8167631 51.23320828 6.54227006 56.56029504 0.0625 59.87890625 C-7.78278725 63.44204078 -17.91034033 64.04621606 -26.125 61.37890625 C-33.39418394 58.02509821 -38.13344032 52.93971612 -41.05859375 45.5546875 C-44.61581998 34.68203558 -44.40663131 21.15050435 -39.29296875 10.89453125 C-30.76304633 -2.66696566 -14.66144658 -6.92078153 0 0 Z " fill="#FAFBFB" transform="translate(593.75,544.55859375)"/>
<path d="M0 0 C4.97661716 3.77536474 7.84962681 8.91934953 9.9375 14.75 C9.9375 16.07 9.9375 17.39 9.9375 18.75 C-3.51004851 19.98183651 -3.51004851 19.98183651 -7.21875 17.0390625 C-8.6875 14.875 -8.6875 14.875 -9.94921875 12.6640625 C-10.9880269 10.53107978 -10.9880269 10.53107978 -13.5 9.25 C-19.15087648 8.14738996 -23.50010876 8.16453981 -28.50048828 11.37329102 C-31.95757924 14.42026443 -33.7453566 18.65647221 -34.42797852 23.16259766 C-34.5619642 25.72460425 -34.55991057 28.24794105 -34.5 30.8125 C-34.50708984 31.67166016 -34.51417969 32.53082031 -34.52148438 33.41601562 C-34.45230932 40.38141129 -33.24239526 45.24312045 -28.5625 50.625 C-24.92715082 53.7150468 -21.84953033 54.10072839 -17.125 54.03125 C-13.68117908 53.56163806 -11.65250408 51.97860816 -9.0625 49.75 C-8.49015625 48.450625 -8.49015625 48.450625 -7.90625 47.125 C-6.0625 44.75 -6.0625 44.75 -2.26953125 44.26171875 C-0.80389115 44.29487803 0.66134139 44.35441021 2.125 44.4375 C2.87458984 44.46005859 3.62417969 44.48261719 4.39648438 44.50585938 C6.2443447 44.56470843 8.09117667 44.65439062 9.9375 44.75 C8.77904316 51.82945844 6.14606876 56.75091664 0.9375 61.75 C-8.07990919 67.58153498 -16.44735705 68.57536749 -27.0625 67.75 C-36.8367534 65.35204983 -42.63296717 60.00081619 -47.765625 51.54296875 C-52.64933195 41.02534685 -52.87177337 27.06933317 -50.1171875 15.92578125 C-46.62510001 7.17359971 -41.81859821 0.94304439 -33.13671875 -3.16015625 C-22.04468507 -7.51991355 -10.10609146 -6.12490392 0 0 Z " fill="#FAFBFB" transform="translate(798.0625,425.25)"/>
<path d="M0 0 C6.35946654 2.86606519 10.32032916 7.54781173 13.14648438 13.81933594 C14.99980093 18.87388096 14.96253121 23.64164959 14.875 28.97265625 C14.87075516 29.96015869 14.86651031 30.94766113 14.86213684 31.96508789 C14.84545771 35.09289802 14.8078256 38.22004365 14.76953125 41.34765625 C14.7544705 43.47915731 14.74078454 45.61066855 14.72851562 47.7421875 C14.69558946 52.94426315 14.64388203 58.14584736 14.58203125 63.34765625 C9.96203125 63.34765625 5.34203125 63.34765625 0.58203125 63.34765625 C0.57268555 62.14753906 0.56333984 60.94742188 0.55371094 59.7109375 C0.51364005 55.23026308 0.44783441 50.75026296 0.37451172 46.27001953 C0.3464009 44.33618882 0.32513746 42.40224532 0.31103516 40.46826172 C0.28946804 37.6774767 0.24274869 34.88803366 0.19140625 32.09765625 C0.19017761 31.24212158 0.18894897 30.38658691 0.18768311 29.50512695 C0.04893285 23.73345635 -1.08481523 19.1454372 -4.41796875 14.34765625 C-8.22245378 11.87988218 -11.9686513 12.02984786 -16.41796875 12.34765625 C-20.23793713 13.23602099 -21.24294632 14.11915474 -23.66796875 17.28515625 C-25.67284998 20.7936984 -26.53550447 23.38463113 -26.62329102 27.36010742 C-26.64323624 28.16071091 -26.66318146 28.96131439 -26.68373108 29.78617859 C-26.70879982 31.07537956 -26.70879982 31.07537956 -26.734375 32.390625 C-26.7551561 33.27422195 -26.77593719 34.15781891 -26.79734802 35.06819153 C-26.86272629 37.8904341 -26.92167403 40.7127696 -26.98046875 43.53515625 C-27.02366512 45.44857731 -27.06727977 47.36198898 -27.11132812 49.27539062 C-27.2183957 53.96605062 -27.31969627 58.65680408 -27.41796875 63.34765625 C-32.03796875 63.34765625 -36.65796875 63.34765625 -41.41796875 63.34765625 C-41.41796875 42.55765625 -41.41796875 21.76765625 -41.41796875 0.34765625 C-36.79796875 0.34765625 -32.17796875 0.34765625 -27.41796875 0.34765625 C-27.08796875 2.65765625 -26.75796875 4.96765625 -26.41796875 7.34765625 C-25.9590625 6.93773437 -25.50015625 6.5278125 -25.02734375 6.10546875 C-24.41375 5.56664062 -23.80015625 5.0278125 -23.16796875 4.47265625 C-22.5646875 3.93898438 -21.96140625 3.4053125 -21.33984375 2.85546875 C-15.22083842 -1.94521429 -7.38437854 -1.99223137 0 0 Z " fill="#FCFCFC" transform="translate(483.41796875,542.65234375)"/>
<path d="M0 0 C4.29 0 8.58 0 13 0 C13.54148198 33.87270604 10.60742698 65.86279995 -14 91.4375 C-28.1072755 104.86358307 -45.52778522 113.07275168 -65 114 C-65 110.04 -65 106.08 -65 102 C-64.1028125 101.8040625 -63.205625 101.608125 -62.28125 101.40625 C-48.33490557 98.0637377 -35.88850962 92.48500111 -25 83 C-24.39027344 82.53207031 -23.78054688 82.06414062 -23.15234375 81.58203125 C-9.89870762 71.18302444 -3.53203514 54.16093139 -1 38 C-0.33038003 31.33055859 -0.30525717 24.63453996 -0.25 17.9375 C-0.22174481 16.1842167 -0.19180468 14.43095971 -0.16015625 12.67773438 C-0.08744382 8.4518723 -0.03718826 4.22631776 0 0 Z " fill="#010E1D" transform="translate(335,493)"/>
<path d="M0 0 C4.62 0 9.24 0 14 0 C17.44541759 8.21978197 20.26551773 16.58591977 23.00146484 25.06103516 C23.75589504 27.39322348 24.52028487 29.72199929 25.28515625 32.05078125 C25.76883386 33.5414706 26.2519282 35.03234936 26.734375 36.5234375 C26.96243835 37.21513031 27.19050171 37.90682312 27.42547607 38.61947632 C28.49413771 41.96038066 29 44.44588176 29 48 C29.66 48 30.32 48 31 48 C31.11480713 47.01265869 31.22961426 46.02531738 31.34790039 45.00805664 C31.95069351 40.81114001 33.13476178 36.89852019 34.43359375 32.87109375 C34.67159195 32.11836685 34.90959015 31.36563995 35.15480042 30.59010315 C35.91055725 28.20423283 36.67393884 25.82088264 37.4375 23.4375 C37.94645896 21.83414155 38.45492699 20.23062718 38.96289062 18.62695312 C40.93736708 12.40474342 42.9355813 6.19325611 45 0 C49.95 0 54.9 0 60 0 C57.53236229 8.47137482 54.77282903 16.83442951 51.97631836 25.20141602 C51.19747928 27.5326301 50.42181063 29.86488123 49.64648438 32.19726562 C46.21134432 42.50676504 42.64145858 52.7614595 39 63 C33.06 63 27.12 63 21 63 C18.40613517 55.5252853 15.81504353 48.04962684 13.22878361 40.57227802 C12.0276978 37.10007585 10.82541462 33.62829813 9.62036133 30.1574707 C8.45689421 26.80627713 7.29661654 23.45399485 6.13851738 20.10094261 C5.48208189 18.203033 4.82237092 16.30625731 4.16261292 14.40950012 C3.76227341 13.24867416 3.3619339 12.08784821 2.94946289 10.8918457 C2.59638565 9.87258499 2.24330841 8.85332428 1.87953186 7.80317688 C1 5 1 5 0 0 Z " fill="#F9FAFA" transform="translate(657,543)"/>
<path d="M0 0 C4.62 0 9.24 0 14 0 C14.33 4.95 14.66 9.9 15 15 C19.95 15.33 24.9 15.66 30 16 C30 19.63 30 23.26 30 27 C25.05 27 20.1 27 15 27 C15.06880536 32.35731449 15.15673609 37.71384311 15.26245117 43.07055664 C15.2957174 44.89305919 15.32374406 46.71566519 15.34643555 48.53833008 C15.37995081 51.1575125 15.43226352 53.77574548 15.48828125 56.39453125 C15.49467117 57.21025101 15.5010611 58.02597076 15.50764465 58.8664093 C15.50210286 63.07972271 15.50210286 63.07972271 17.35832214 66.70732117 C19.72084405 68.56760213 21.72095096 68.51299712 24.6875 68.6875 C26.440625 68.790625 28.19375 68.89375 30 69 C30 72.63 30 76.26 30 80 C26.95736733 80.10845027 23.91863796 80.18752063 20.875 80.25 C20.0190625 80.28351563 19.163125 80.31703125 18.28125 80.3515625 C12.64500438 80.43827397 9.4669163 79.78184932 5 76 C1.89430069 72.46592837 0.87245717 69.47176377 0.88647461 64.80395508 C0.88655014 63.96331009 0.88662567 63.1226651 0.88670349 62.25654602 C0.89186478 61.35333115 0.89702606 60.45011627 0.90234375 59.51953125 C0.9037587 58.59154221 0.90517365 57.66355316 0.90663147 56.70744324 C0.91223063 53.74242942 0.92478296 50.77749101 0.9375 47.8125 C0.94251511 45.80273547 0.947078 43.79296975 0.95117188 41.78320312 C0.96219979 36.85543968 0.97946383 31.92773263 1 27 C0.28972656 27.01160156 -0.42054688 27.02320313 -1.15234375 27.03515625 C-2.07144531 27.04417969 -2.99054688 27.05320312 -3.9375 27.0625 C-4.85402344 27.07410156 -5.77054687 27.08570313 -6.71484375 27.09765625 C-9 27 -9 27 -10 26 C-10.14257189 22.66381769 -10.04228157 19.34024394 -10 16 C-6.7 16 -3.4 16 0 16 C0 10.72 0 5.44 0 0 Z " fill="#FAFAFB" transform="translate(514,527)"/>
<path d="M0 0 C5.28 0 10.56 0 16 0 C16 31.35 16 62.7 16 95 C10.72 95 5.44 95 0 95 C0 63.65 0 32.3 0 0 Z " fill="#FCFCFC" transform="translate(503,397)"/>
<path d="M0 0 C5.10792778 2.55396389 8.47089979 6.0404512 11.08984375 11.109375 C12.33128322 15.05214413 12.32946635 18.70324982 12.3125 22.8125 C12.32861328 23.58142578 12.34472656 24.35035156 12.36132812 25.14257812 C12.3670908 31.97135336 11.09039237 37.534409 6.5625 42.875 C1.89140481 46.74859113 -1.54114722 47.44854087 -7.53125 47.31640625 C-12.3520002 46.69855694 -15.02525037 44.02890239 -18.25 40.625 C-21.9722299 35.04165515 -22.36413856 29.63100325 -22.375 23.125 C-22.39949219 22.36058594 -22.42398438 21.59617187 -22.44921875 20.80859375 C-22.48130741 14.50851936 -20.9610993 9.05297906 -16.48144531 4.43432617 C-11.07383422 -0.18351072 -6.95597883 -0.77050842 0 0 Z " fill="#020C1B" transform="translate(677,433)"/>
<path d="M0 0 C4.95 0 9.9 0 15 0 C15 28.38 15 56.76 15 86 C10.05 86 5.1 86 0 86 C0 57.62 0 29.24 0 0 Z " fill="#F9F9FA" transform="translate(413,520)"/>
<path d="M0 0 C0 3.96 0 7.92 0 12 C-1.36125 12.4125 -2.7225 12.825 -4.125 13.25 C-9.487705 15.03756833 -14.33297754 17.59499969 -18 22 C-18.46836671 23.98867852 -18.46836671 23.98867852 -18.43237305 26.19604492 C-18.45216721 27.03668991 -18.47196136 27.8773349 -18.49235535 28.74345398 C-18.50194023 30.09827629 -18.50194023 30.09827629 -18.51171875 31.48046875 C-18.52966995 32.40845779 -18.54762115 33.33644684 -18.56611633 34.29255676 C-18.62031291 37.25749157 -18.654145 40.22226455 -18.6875 43.1875 C-18.72066482 45.19728819 -18.75515369 47.207055 -18.79101562 49.21679688 C-18.87604479 54.14441465 -18.94281138 59.07198364 -19 64 C-23.62 64 -28.24 64 -33 64 C-33 43.21 -33 22.42 -33 1 C-28.71 1 -24.42 1 -20 1 C-20 3.64 -20 6.28 -20 9 C-19.34 9 -18.68 9 -18 9 C-17.67 8.01 -17.34 7.02 -17 6 C-11.64578054 1.78432146 -6.84871536 -0.8933107 0 0 Z " fill="#FBFCFC" transform="translate(651,542)"/>
<path d="M0 0 C5.28 0 10.56 0 16 0 C16 22.77 16 45.54 16 69 C10.72 69 5.44 69 0 69 C0 46.23 0 23.46 0 0 Z " fill="#FEFEFE" transform="translate(718,423)"/>
<path d="M0 0 C4.62 0 9.24 0 14 0 C14 20.79 14 41.58 14 63 C9.38 63 4.76 63 0 63 C0 42.21 0 21.42 0 0 Z " fill="#FCFCFD" transform="translate(725,543)"/>
<path d="M0 0 C2 3 2 3 1.875 5.45703125 C0.81088923 8.54960317 -0.45834133 9.6677891 -3 11.6875 C-5.96192671 13.96879293 -5.96192671 13.96879293 -8 17 C-8.55392533 22.92274007 -8.56489548 28.00914632 -5 33 C-3.96875 33.680625 -2.9375 34.36125 -1.875 35.0625 C1 37 1 37 2.125 39.5 C2 42 2 42 0.5 44.375 C-2 46 -2 46 -5.3125 46.125 C-11.46549024 44.24781654 -15.39216308 40.73497617 -18.4375 35.0625 C-21.32475973 27.68811367 -21.70179376 17.83267947 -18.5 10.5 C-14.2884139 3.57663724 -8.18041599 -2.045104 0 0 Z " fill="#0078A2" transform="translate(239,495)"/>
<path d="M0 0 C5.09642312 -0.65060721 5.09642312 -0.65060721 7.66210938 1.19677734 C10.43592823 4.93535874 9.51069327 10.14986784 9.5 14.625 C9.52835938 15.68074219 9.55671875 16.73648437 9.5859375 17.82421875 C9.60610306 25.96102171 7.88364101 31.8897019 2.22631836 37.87719727 C-1.15920683 41.05208964 -4.37015879 43.11343466 -9 44 C-12.25 43.8125 -12.25 43.8125 -15 43 C-17 40 -17 40 -16.9375 37.5 C-15.67832008 34.14218689 -14.16385456 33.58192728 -11 32 C-6.87662839 29.84013868 -4.93588535 28.27530737 -3 24 C-2.54425544 20.463155 -2.4884687 16.93795479 -2.4375 13.375 C-2.40305319 11.48680446 -2.36044172 9.59873536 -2.30859375 7.7109375 C-2.29626709 6.87868652 -2.28394043 6.04643555 -2.27124023 5.18896484 C-2 3 -2 3 0 0 Z " fill="#0086AE" transform="translate(227,445)"/>
<path d="M0 0 C0.66 0 1.32 0 2 0 C3.85333978 5.39280925 5.70470097 10.78629198 7.55419922 16.18041992 C8.18418359 18.01687153 8.81471654 19.85313505 9.44580078 21.68920898 C10.35071423 24.32226563 11.25367844 26.95598357 12.15625 29.58984375 C12.44060913 30.41588608 12.72496826 31.24192841 13.01794434 32.09300232 C15 37.88612829 15 37.88612829 15 39 C6.09 39 -2.82 39 -12 39 C-10.72108908 33.24490084 -9.47858184 28.07118467 -7.6171875 22.55859375 C-7.39805695 21.90544693 -7.17892639 21.25230011 -6.95315552 20.57936096 C-6.26471919 18.53060137 -5.56999725 16.48404199 -4.875 14.4375 C-4.40192249 13.03334498 -3.92926287 11.6290491 -3.45703125 10.22460938 C-2.30949994 6.81476903 -1.15632848 3.40686863 0 0 Z " fill="#020B19" transform="translate(449,417)"/>
<path d="M0 0 C4.88731658 2.44365829 6.85320551 5.50818679 8.9375 10.34375 C8.9375 12.32375 8.9375 14.30375 8.9375 16.34375 C-1.2925 16.34375 -11.5225 16.34375 -22.0625 16.34375 C-22.0625 9.69570216 -21.0269895 7.33239928 -17.0625 2.34375 C-12.45090192 -1.87256825 -5.77221767 -1.83661471 0 0 Z " fill="#020B19" transform="translate(856.0625,432.65625)"/>
<path d="M0 0 C4.97232345 2.30857874 7.11681985 4.87356515 9 10 C9 11.65 9 13.3 9 15 C-0.57 15 -10.14 15 -20 15 C-18.98504664 8.91027986 -17.74266152 5.51063592 -13.19921875 1.3515625 C-9.1264925 -1.15139182 -4.61073567 -0.59471808 0 0 Z " fill="#020B19" transform="translate(784,553)"/>
<path d="M0 0 C2.72752242 2.40663743 4.4202657 4.65494632 6.125 7.875 C6.125 9.855 6.125 11.835 6.125 13.875 C-3.115 13.875 -12.355 13.875 -21.875 13.875 C-20.48886139 4.1720297 -20.48886139 4.1720297 -15.8125 0.0625 C-10.6178696 -2.03745697 -5.21847526 -2.04201206 0 0 Z " fill="#020A17" transform="translate(586.875,554.125)"/>
<path d="M0 0 C3.125 1.4375 3.125 1.4375 5 4 C6.05210698 8.69941117 5.64094491 11.95312331 3.125 16.0625 C-1.27595134 18.79108983 -4.953485 19.009303 -10 18 C-13.120231 16.00305216 -14.58556388 14.71300264 -15.46875 11.0625 C-15.76001833 7.21775808 -15.19618595 5.31389753 -13.125 2 C-8.71778748 -0.82061601 -5.09435254 -0.86854535 0 0 Z " fill="#F9F9F9" transform="translate(731,393)"/>
<path d="M0 0 C0.33 1.32 0.66 2.64 1 4 C0.38125 4.20625 -0.2375 4.4125 -0.875 4.625 C-3.92810682 6.6005397 -4.04961029 8.51523773 -5 12 C-5.45242818 13.33534863 -5.91133455 14.66851152 -6.375 16 C-6.62765625 16.78246094 -6.8803125 17.56492187 -7.140625 18.37109375 C-7.74121903 20.20836549 -8.37991395 22.03342264 -9.046875 23.84765625 C-12.70240095 34.74801079 -12.75106724 45.46888878 -12.95892334 56.86853027 C-13.05781167 61.99985018 -13.18416437 67.13062771 -13.30412292 72.26148987 C-13.41265133 76.92641104 -13.51671734 81.59130189 -13.6081543 86.2565918 C-13.84416533 97.85430993 -14.3171165 109.41998654 -15 121 C-15.33 121 -15.66 121 -16 121 C-16.09319617 110.17651173 -16.16401459 99.35312088 -16.20724869 88.52931118 C-16.22801206 83.50189856 -16.25612092 78.474763 -16.30175781 73.44750977 C-16.34562092 68.58452238 -16.3692214 63.72179936 -16.37950897 58.85862923 C-16.38682846 57.01491199 -16.40111876 55.17120716 -16.42292023 53.32760429 C-16.58961099 38.63033853 -15.07969055 25.56645465 -8 12.375 C-7.505 11.39466797 -7.505 11.39466797 -7 10.39453125 C-5.02524539 6.57615808 -2.79765312 3.25976547 0 0 Z " fill="#00A1CB" transform="translate(205,361)"/>
<path d="M0 0 C4.6 2.2 4.6 2.2 6 5 C6.27273286 8.13642783 6.25103097 10.38079028 5.0625 13.3125 C1.76857872 16.0075265 -1.82412691 16.2124567 -6 16 C-8.49058663 14.85848113 -10.0896056 13.9103944 -12 12 C-12.28800741 9.07192466 -12.48146102 6.85002788 -12 4 C-8.4894808 -0.25517479 -5.34302469 -0.66787809 0 0 Z " fill="#F5F6F7" transform="translate(735,518)"/>
<path d="M0 0 C0.33 0 0.66 0 1 0 C0.67 30.03 0.34 60.06 0 91 C-10 91 -10 91 -12.5 89.0625 C-12.995 88.381875 -13.49 87.70125 -14 87 C-16.52475462 85.73762269 -18.31200466 85.90143596 -21.125 85.9375 C-22.03507813 85.94652344 -22.94515625 85.95554687 -23.8828125 85.96484375 C-24.93082031 85.98224609 -24.93082031 85.98224609 -26 86 C-23.10922729 83.10922729 -21.04349558 83.13257363 -17 83 C-14.04721526 84.18810274 -11.27305129 85.72694871 -9 88 C-6.67182036 88.36760731 -4.3381615 88.70241581 -2 89 C-2.00444122 88.01773941 -2.00888245 87.03547882 -2.01345825 86.02345276 C-2.05410359 76.74038387 -2.08403192 67.45733317 -2.10362434 58.17419529 C-2.11403579 53.40230649 -2.12814656 48.63048986 -2.15087891 43.85864258 C-2.17270169 39.24857314 -2.18458845 34.63857287 -2.18975449 30.02845573 C-2.19343336 28.27470754 -2.20061707 26.52096288 -2.21146011 24.76724434 C-2.31188082 7.84359566 -2.31188082 7.84359566 0 0 Z " fill="#01080D" transform="translate(189,391)"/>
<path d="M0 0 C3.15234375 -0.46875 3.15234375 -0.46875 6.9375 -0.5 C8.18402344 -0.5309375 9.43054688 -0.561875 10.71484375 -0.59375 C14 0 14 0 15.94140625 2.53125 C16.29074219 3.3459375 16.64007813 4.160625 17 5 C18.32 4.34 19.64 3.68 21 3 C20.02433888 4.16959987 19.044375 5.33561177 18.0625 6.5 C17.51722656 7.1496875 16.97195313 7.799375 16.41015625 8.46875 C15.94480469 8.9740625 15.47945313 9.479375 15 10 C14.67 10 14.34 10 14 10 C14 7.36 14 4.72 14 2 C9.38 2 4.76 2 0 2 C0 22.79 0 43.58 0 65 C5.28 65 10.56 65 16 65 C14 67 14 67 10.8125 67.265625 C8.9253125 67.25789062 8.9253125 67.25789062 7 67.25 C5.741875 67.25515625 4.48375 67.2603125 3.1875 67.265625 C0 67 0 67 -2 65 C-2.25396729 62.42591858 -2.25396729 62.42591858 -2.25878906 59.12915039 C-2.26509338 57.89769791 -2.27139771 56.66624542 -2.27789307 55.3974762 C-2.27431299 54.04753477 -2.27021095 52.69759464 -2.265625 51.34765625 C-2.26697189 49.96764558 -2.26891261 48.58763538 -2.27142334 47.20762634 C-2.2743745 44.31325774 -2.27007797 41.41901248 -2.26074219 38.5246582 C-2.2493582 34.81439147 -2.25590029 31.10441442 -2.26788712 27.39415836 C-2.2751151 24.54342976 -2.27281331 21.69276978 -2.26763153 18.84203911 C-2.26629707 17.47409468 -2.26793563 16.10614402 -2.27259064 14.73820686 C-2.27766978 12.82555383 -2.26855564 10.91287898 -2.25878906 9.00024414 C-2.25719788 7.91151505 -2.25560669 6.82278595 -2.25396729 5.70106506 C-2 3 -2 3 0 0 Z " fill="#000004" transform="translate(442,541)"/>
<path d="M0 0 C1.16345947 -0.00555908 2.32691895 -0.01111816 3.52563477 -0.0168457 C11.99002501 0.05585001 11.99002501 0.05585001 15.375 2.3125 C14.72539307 2.29678955 14.07578613 2.2810791 13.40649414 2.26489258 C10.41692069 2.20190663 7.42748751 2.16330979 4.4375 2.125 C3.41591797 2.09986328 2.39433594 2.07472656 1.34179688 2.04882812 C-5.30881349 1.98508426 -10.44940882 2.94130828 -16.625 5.3125 C-18.30277896 5.71017832 -19.98953071 6.07501572 -21.6875 6.375 C-22.51894531 6.53484375 -23.35039062 6.6946875 -24.20703125 6.859375 C-25.74481149 7.14755353 -27.28378014 7.42951246 -28.82421875 7.703125 C-32.49699967 8.4586685 -35.03755356 9.41779552 -37.8125 11.875 C-40.7483288 14.41938496 -41.98620823 14.60495716 -45.625 15.3125 C-46.69216704 17.11182579 -46.69216704 17.11182579 -47.625 19.3125 C-50.69398413 22.79621172 -53.17528015 24.91401662 -57.625 26.3125 C-52.25007037 14.5082287 -38.17883685 7.67515209 -26.625 3.3125 C-17.85559693 0.11545554 -9.24405279 0.03843026 0 0 Z " fill="#01B3D6" transform="translate(263.625,334.6875)"/>
<path d="M0 0 C6.00805119 5.15153149 6.65717251 12.6434538 7.25390625 20.2265625 C7.35731915 25.45236089 7.35731915 25.45236089 7 28 C5 30 5 30 3.05111694 30.24050903 C2.256138 30.23606781 1.46115906 30.23162659 0.64208984 30.22705078 C-0.25869293 30.22689972 -1.15947571 30.22674866 -2.08755493 30.22659302 C-3.06155243 30.21627045 -4.03554993 30.20594788 -5.0390625 30.1953125 C-6.03505463 30.1924826 -7.03104675 30.18965271 -8.05722046 30.18673706 C-11.24660118 30.1755184 -14.43570378 30.15041081 -17.625 30.125 C-19.78385012 30.11497238 -21.94270463 30.10584615 -24.1015625 30.09765625 C-29.40113699 30.07557361 -34.70054863 30.04207958 -40 30 C-40 31.65 -40 33.3 -40 35 C-40.66 34.67 -41.32 34.34 -42 34 C-42 32.02 -42 30.04 -42 28 C-26.49 28 -10.98 28 5 28 C4.5500068 16.99622127 4.5500068 16.99622127 1.9375 7.25 C0 2.09252669 0 2.09252669 0 0 Z " fill="#010206" transform="translate(876,433)"/>
<path d="M0 0 C5.997916 0.48036702 10.48663846 1.73817445 15.8125 4.5 C16.50609619 4.85602295 17.19969238 5.2120459 17.91430664 5.57885742 C34.67644792 14.48283547 45.73384745 28.59194565 52.18359375 46.23828125 C52.99507548 48.98334146 53.16725592 51.15664941 53 54 C52.01 53.34 51.02 52.68 50 52 C49.6613543 49.66743175 49.32905506 47.33394051 49 45 C47.95156112 42.20531563 46.62100118 39.58625411 45.25 36.9375 C44.91484375 36.25623047 44.5796875 35.57496094 44.234375 34.87304688 C40.38667684 27.28696016 34.7700899 19.88504495 27 16 C26.67 15.01 26.34 14.02 26 13 C24.34561387 12.30341637 22.67745682 11.63903117 21 11 C20 10 19 9 18 8 C14.62977079 6.43131675 14.62977079 6.43131675 11 6 C11 5.34 11 4.68 11 4 C9.1128125 3.8453125 9.1128125 3.8453125 7.1875 3.6875 C4.39500343 3.35141192 3.25566879 3.19974124 1 1.4375 C0.67 0.963125 0.34 0.48875 0 0 Z " fill="#00B0D4" transform="translate(280,337)"/>
<path d="M0 0 C1.81713 1.2330525 3.20142697 2.63892697 4.75 4.1875 C5.74 4.5175 6.73 4.8475 7.75 5.1875 C8.245 8.1575 8.245 8.1575 8.75 11.1875 C9.41 11.1875 10.07 11.1875 10.75 11.1875 C12.13489368 16.14234183 11.64120615 20.93339148 11.3125 26 C11.26029297 26.88365234 11.20808594 27.76730469 11.15429688 28.67773438 C11.02525381 30.84800408 10.88840044 33.01780693 10.75 35.1875 C9.43 35.8475 8.11 36.5075 6.75 37.1875 C7.07097656 36.69507813 7.39195312 36.20265625 7.72265625 35.6953125 C10.40432727 29.14918021 9.77038085 19.67872043 7.8046875 12.953125 C6.13610345 9.40607211 4.37259644 6.79230797 1.5625 4.0625 C-3.81798344 2.38857182 -8.66783543 2.04998257 -13.91015625 4.359375 C-18.73735508 7.18434204 -23.08692487 10.4626433 -27.25 14.1875 C-25.01407869 9.37166949 -23.0532567 6.51165647 -18.25 4.1875 C-17.59 3.1975 -16.93 2.2075 -16.25 1.1875 C-10.92581462 -0.79602004 -5.48812532 -1.98182303 0 0 Z " fill="#00AED2" transform="translate(242.25,352.8125)"/>
<path d="M0 0 C0 0.33 0 0.66 0 1 C-1.98 1 -3.96 1 -6 1 C-6 8.92 -6 16.84 -6 25 C6.54 25 19.08 25 32 25 C32 25.33 32 25.66 32 26 C26.48245195 26.07402793 20.96519144 26.12854366 15.44726562 26.16479492 C13.56928474 26.17990325 11.69133924 26.20039094 9.81347656 26.22631836 C7.11774981 26.26261246 4.42248854 26.27970545 1.7265625 26.29296875 C0.88380768 26.30845261 0.04105286 26.32393646 -0.82723999 26.33988953 C-3.19287109 26.34057617 -3.19287109 26.34057617 -7 26 C-9.20192224 22.69711664 -9.23959968 21.72537273 -9.1953125 17.89453125 C-9.18886719 16.91162109 -9.18242187 15.92871094 -9.17578125 14.91601562 C-9.15902344 13.89185547 -9.14226562 12.86769531 -9.125 11.8125 C-9.11597656 10.77673828 -9.10695313 9.74097656 -9.09765625 8.67382812 C-9.0740786 6.11565315 -9.0411703 3.55794252 -9 1 C-6.04335481 -0.4783226 -3.25770263 -0.06032783 0 0 Z " fill="#005F8B" transform="translate(276,618)"/>
<path d="M0 0 C-0.66 0.66 -1.32 1.32 -2 2 C-3.98 2 -5.96 2 -8 2 C-8 16.85 -8 31.7 -8 47 C-8.99 47.495 -8.99 47.495 -10 48 C-10 32.16 -10 16.32 -10 0 C-2 -1 -2 -1 0 0 Z " fill="#000409" transform="translate(211,469)"/>
<path d="M0 0 C6.84994496 1.68995353 12.70517453 5.88238607 18.5859375 9.63891602 C20.05149276 10.56241365 21.54726005 11.43759171 23.046875 12.3046875 C28.30286737 15.60366143 32.61340429 22.11298335 35.25 27.6875 C34.92 28.3475 34.59 29.0075 34.25 29.6875 C33.63125 28.8521875 33.63125 28.8521875 33 28 C21.86451577 13.28525298 10.7742877 6.60125809 -6.75 1.6875 C-3.75 -0.3125 -3.75 -0.3125 0 0 Z " fill="#00ABCE" transform="translate(280.75,346.3125)"/>
<path d="M0 0 C2.97 0.495 2.97 0.495 6 1 C4.68 1.33 3.36 1.66 2 2 C2 8.93 2 15.86 2 23 C14.21 23 26.42 23 39 23 C39.495 23.99 39.495 23.99 40 25 C20.2 24.505 20.2 24.505 0 24 C0 16.08 0 8.16 0 0 Z " fill="#020104" transform="translate(270,619)"/>
<path d="M0 0 C0 0.99 0 1.98 0 3 C-4.35703412 6.79483617 -8.52711992 6.24505433 -14 6 C-14 11.28 -14 16.56 -14 22 C-11.69 22.33 -9.38 22.66 -7 23 C-4.50353042 25.25487575 -4.04138386 26.39303676 -3.8125 29.75 C-3.874375 30.4925 -3.93625 31.235 -4 32 C-4.28875 31.401875 -4.5775 30.80375 -4.875 30.1875 C-6.04742026 27.80672208 -6.04742026 27.80672208 -8 25 C-10.64 24.67 -13.28 24.34 -16 24 C-16 17.4 -16 10.8 -16 4 C-14.1025 3.896875 -12.205 3.79375 -10.25 3.6875 C-5.81882813 3.44667544 -3.32851768 3.01343955 0 0 Z " fill="#010307" transform="translate(217,434)"/>
<path d="M0 0 C0.66 0 1.32 0 2 0 C1.84152588 0.80195801 1.68305176 1.60391602 1.51977539 2.43017578 C0.90144543 6.67687409 0.77071024 10.83181211 0.68359375 15.1171875 C0.66281265 15.97434357 0.64203156 16.83149963 0.62062073 17.71463013 C0.55558739 20.43467714 0.49645659 23.15481517 0.4375 25.875 C0.39427076 27.72657166 0.3506551 29.57813434 0.30664062 31.4296875 C0.19995379 35.95303331 0.09855806 40.47647007 0 45 C-0.66 45 -1.32 45 -2 45 C-2.04951793 39.39495119 -2.08577555 33.79003035 -2.10986328 28.18481445 C-2.11990737 26.2788674 -2.13354516 24.37293571 -2.15087891 22.46704102 C-2.17519718 19.72408248 -2.18649912 16.98132809 -2.1953125 14.23828125 C-2.20563507 13.38913651 -2.21595764 12.53999176 -2.22659302 11.66511536 C-2.22741351 7.31744045 -2.03452583 3.9599335 0 0 Z " fill="#32373D" transform="translate(458,561)"/>
<path d="M0 0 C0.65234375 1.7578125 0.65234375 1.7578125 1 4 C-2.56684166 11.37246769 -9.73798684 16.95441622 -17.25 19.875 C-24.30860916 21.95827006 -31.87862151 21.61140681 -39 20 C-39 19.34 -39 18.68 -39 18 C-37.90042969 18.04640625 -36.80085937 18.0928125 -35.66796875 18.140625 C-25.34404199 18.44468265 -17.31886486 17.6508997 -8.1875 12.375 C-4.78142482 8.67697552 -2.43263752 4.38041944 0 0 Z " fill="#05060A" transform="translate(807,474)"/>
<path d="M0 0 C0.33 0.66 0.66 1.32 1 2 C1.66 2 2.32 2 3 2 C3.08692074 6.27070558 3.14036515 10.54118458 3.1875 14.8125 C3.21263672 16.02744141 3.23777344 17.24238281 3.26367188 18.49414062 C3.27817383 20.23920898 3.27817383 20.23920898 3.29296875 22.01953125 C3.31653442 23.62985229 3.31653442 23.62985229 3.34057617 25.27270508 C3 28 3 28 0 31 C0 21.43 0 11.86 0 2 C-1.65 2 -3.3 2 -5 2 C-5 1.67 -5 1.34 -5 1 C-3.35 0.67 -1.7 0.34 0 0 Z " fill="#006F9F" transform="translate(258,593)"/>
<path d="M0 0 C1.98490443 2.97735664 2.67144345 4.50246254 3 8 C2.1796875 10.078125 2.1796875 10.078125 0.875 12.25 C-2.11373269 17.73628089 -3.70975532 23.36845107 -5.29931641 29.37402344 C-5.81317265 31.26457018 -6.4006905 33.13478062 -7 35 C-7.99 35.495 -7.99 35.495 -9 36 C-8.75765625 34.97003906 -8.5153125 33.94007813 -8.265625 32.87890625 C-8.10553955 32.19836182 -7.9454541 31.51781738 -7.78051758 30.81665039 C-7.42390988 29.30143693 -7.06697096 27.7863014 -6.7097168 26.27124023 C-5.75838961 22.23466271 -4.81269601 18.19692336 -3.87890625 14.15625 C-3.70004883 13.38595459 -3.52119141 12.61565918 -3.33691406 11.82202148 C-2.99179508 10.33502142 -2.64864221 8.84756344 -2.30761719 7.35961914 C-1.11243241 2.22486481 -1.11243241 2.22486481 0 0 Z " fill="#0C0F16" transform="translate(855,561)"/>
<path d="M0 0 C0.66 0.33 1.32 0.66 2 1 C-0.26118038 3.74415095 -1.47594492 4.89410286 -5.015625 5.609375 C-8.01041667 5.73958333 -11.00520833 5.86979167 -14 6 C-14.33 13.26 -14.66 20.52 -15 28 C-17.56161093 24.15758361 -17.25841178 21.00754875 -17.1875 16.5625 C-17.18685547 15.79873047 -17.18621094 15.03496094 -17.18554688 14.24804688 C-17.15730713 10.64277218 -16.97635524 7.4900439 -16 4 C-14.64455078 3.94392578 -14.64455078 3.94392578 -13.26171875 3.88671875 C-12.08222656 3.82097656 -10.90273437 3.75523437 -9.6875 3.6875 C-8.51574219 3.62949219 -7.34398437 3.57148438 -6.13671875 3.51171875 C-2.9016314 2.98395232 -1.91315119 2.57619276 0 0 Z " fill="#020409" transform="translate(218,397)"/>
<path d="M0 0 C0.33 1.32 0.66 2.64 1 4 C0.071875 4.309375 0.071875 4.309375 -0.875 4.625 C-3.92810682 6.6005397 -4.04961029 8.51523773 -5 12 C-5.53369457 13.62763567 -6.07567435 15.25257308 -6.625 16.875 C-6.88539063 17.65617187 -7.14578125 18.43734375 -7.4140625 19.2421875 C-7.60742188 19.82226562 -7.80078125 20.40234375 -8 21 C-8.66 21 -9.32 21 -10 21 C-10.66 23.64 -11.32 26.28 -12 29 C-12.33 29 -12.66 29 -13 29 C-12.53399202 22.78887875 -11.07935221 18.29704729 -8.1875 12.8125 C-7.84396484 12.12736328 -7.50042969 11.44222656 -7.14648438 10.73632812 C-5.12192838 6.78977338 -2.91694791 3.37579365 0 0 Z " fill="#00AACE" transform="translate(205,361)"/>
<path d="M0 0 C0.33 0 0.66 0 1 0 C1 2.31 1 4.62 1 7 C1.66 7 2.32 7 3 7 C3.25523437 8.03060547 3.25523437 8.03060547 3.515625 9.08203125 C3.75796875 9.98308594 4.0003125 10.88414062 4.25 11.8125 C4.48203125 12.70582031 4.7140625 13.59914063 4.953125 14.51953125 C6.17832096 17.42251421 7.31359089 18.41257643 10 20 C12.64934822 20.71433121 12.64934822 20.71433121 15 21 C15 21.66 15 22.32 15 23 C15.66 23.33 16.32 23.66 17 24 C12.17633706 23.71058022 8.95059254 22.94375305 5.35546875 19.5703125 C0.62668544 14.09201022 -0.44157791 9.0431333 -0.140625 1.90625 C-0.09421875 1.2771875 -0.0478125 0.648125 0 0 Z " fill="#00ADD1" transform="translate(224,378)"/>
<path d="M0 0 C1.08780305 3.26988968 0.90449044 5.15860302 -0.1796875 8.40625 C-0.44910156 9.23253906 -0.71851563 10.05882812 -0.99609375 10.91015625 C-1.28613281 11.76480469 -1.57617188 12.61945313 -1.875 13.5 C-2.43575648 15.19763262 -2.9956823 16.8955399 -3.5546875 18.59375 C-3.80718262 19.34333984 -4.05967773 20.09292969 -4.31982422 20.86523438 C-4.9668818 22.89605688 -5.5075418 24.92686248 -6 27 C-6.66 27 -7.32 27 -8 27 C-8.33 24.03 -8.66 21.06 -9 18 C-8.34 18.66 -7.68 19.32 -7 20 C-6.823479 19.42967041 -6.64695801 18.85934082 -6.46508789 18.27172852 C-5.66744801 15.7009727 -4.86504006 13.13173007 -4.0625 10.5625 C-3.64581055 9.21575195 -3.64581055 9.21575195 -3.22070312 7.84179688 C-2.95322266 6.98779297 -2.68574219 6.13378906 -2.41015625 5.25390625 C-2.04096069 4.06776733 -2.04096069 4.06776733 -1.66430664 2.85766602 C-1 1 -1 1 0 0 Z " fill="#07090D" transform="translate(605,448)"/>
<path d="M0 0 C-1.423125 1.0828125 -1.423125 1.0828125 -2.875 2.1875 C-7.47695598 6.0423149 -8.18359232 10.20904047 -9 16 C-9.06522873 18.29083289 -9.0858841 20.58335794 -9.0625 22.875 C-9.05347656 24.02742188 -9.04445313 25.17984375 -9.03515625 26.3671875 C-9.02355469 27.23601562 -9.01195312 28.10484375 -9 29 C-11.55388458 26.44611542 -11.3096037 24.67539225 -11.37988281 21.18408203 C-11.37827148 20.42208496 -11.37666016 19.66008789 -11.375 18.875 C-11.37338867 18.10397949 -11.37177734 17.33295898 -11.37011719 16.53857422 C-11.22018682 9.60208999 -10.01777022 5.01777022 -4.9375 -0.0625 C-3 -1 -3 -1 0 0 Z " fill="#06070B" transform="translate(774,436)"/>
<path d="M0 0 C6.17290074 0.46952713 10.6653738 1.88869301 16.125 4.75 C16.80175781 5.08515625 17.47851562 5.4203125 18.17578125 5.765625 C22.63672552 8.04355399 26.2607556 10.66846138 30 14 C25.7894346 14 23.46340714 11.96224031 20.00390625 9.6875 C19.30136719 9.23375 18.59882813 8.78 17.875 8.3125 C17.21242188 7.87550781 16.54984375 7.43851562 15.8671875 6.98828125 C13.91018396 5.76609862 13.91018396 5.76609862 11 6 C11 5.34 11 4.68 11 4 C9.1128125 3.8453125 9.1128125 3.8453125 7.1875 3.6875 C4.39500343 3.35141192 3.25566879 3.19974124 1 1.4375 C0.67 0.963125 0.34 0.48875 0 0 Z " fill="#01BBDF" transform="translate(280,337)"/>
<path d="M0 0 C0.66 0.33 1.32 0.66 2 1 C0.68 4.3 -0.64 7.6 -2 11 C-0.741875 10.938125 0.51625 10.87625 1.8125 10.8125 C5.72231986 10.79173989 5.72231986 10.79173989 8 12.5 C8.33 12.995 8.66 13.49 9 14 C8.67 14.66 8.34 15.32 8 16 C7.34 15.34 6.68 14.68 6 14 C3.33757179 13.53709779 3.33757179 13.53709779 0.375 13.375 C-0.62789062 13.30023438 -1.63078125 13.22546875 -2.6640625 13.1484375 C-3.43492187 13.09945313 -4.20578125 13.05046875 -5 13 C-4.48474397 7.71862571 -2.74522883 4.42778844 0 0 Z " fill="#01070C" transform="translate(210,376)"/>
<path d="M0 0 C6.875 0.875 6.875 0.875 8 2 C8.28484531 4.48222341 8.44806553 6.96468855 8.62109375 9.45703125 C9.01731722 12.11622176 9.48197654 13.78358875 11 16 C12.93103908 17.11473134 12.93103908 17.11473134 15.125 17.75 C15.84945312 17.99234375 16.57390625 18.2346875 17.3203125 18.484375 C17.87460938 18.65453125 18.42890625 18.8246875 19 19 C19 19.33 19 19.66 19 20 C10.83796328 19.81177693 10.83796328 19.81177693 8 17.0625 C6.80368742 13.39879271 6.449281 9.9455704 6.2109375 6.109375 C6.22637885 4.01529958 6.22637885 4.01529958 5 3 C1.36805359 2.80850919 1.36805359 2.80850919 -2 4 C-1.34 2.68 -0.68 1.36 0 0 Z " fill="#01B5DA" transform="translate(227,373)"/>
<path d="M0 0 C0.66 0.33 1.32 0.66 2 1 C-2.80033017 6.05297913 -8.14581073 9.38618206 -14.3125 12.5 C-15.01826172 12.86222656 -15.72402344 13.22445312 -16.45117188 13.59765625 C-21.62193026 16.12602325 -21.62193026 16.12602325 -25 15 C-24.45585449 14.72325439 -23.91170898 14.44650879 -23.35107422 14.16137695 C-20.85495902 12.88625113 -18.36501504 11.59949458 -15.875 10.3125 C-15.0190625 9.87744141 -14.163125 9.44238281 -13.28125 8.99414062 C-8.32569864 6.42106588 -4.13323489 3.76056617 0 0 Z " fill="#02080F" transform="translate(309,577)"/>
<path d="M0 0 C0.66 0 1.32 0 2 0 C0.608547 9.61556329 -2.15519377 18.73809271 -5 28 C-5.33 28 -5.66 28 -6 28 C-5.42100187 21.40474547 -4.20265263 15.3108382 -2.4375 8.9375 C-2.20353516 8.07189453 -1.96957031 7.20628906 -1.72851562 6.31445312 C-1.1582666 4.20802305 -0.57998166 2.10377111 0 0 Z " fill="#07090E" transform="translate(846,546)"/>
<path d="M0 0 C0 0.66 0 1.32 0 2 C-0.94359375 2.09474609 -0.94359375 2.09474609 -1.90625 2.19140625 C-7.13607236 2.93964891 -10.2774248 3.8399248 -14.0625 7.625 C-16.28006227 9.81535291 -17.40440042 10.89094656 -20.49609375 11.45703125 C-22.70605334 11.43979288 -24.81444615 11.3187266 -27 11 C-27 10.67 -27 10.34 -27 10 C-25.7625 9.938125 -24.525 9.87625 -23.25 9.8125 C-19.60418969 9.36784564 -19.60418969 9.36784564 -17 6.6875 C-16.01 5.3571875 -16.01 5.3571875 -15 4 C-10.06914287 0.60391297 -5.91993577 -0.49332798 0 0 Z " fill="#00A8CF" transform="translate(228,417)"/>
<path d="M0 0 C0.99 0.33 1.98 0.66 3 1 C4.33451263 1.11235161 5.67354389 1.17575649 7.01245117 1.20532227 C8.2133564 1.2352401 8.2133564 1.2352401 9.43852234 1.26576233 C10.29798965 1.28247482 11.15745697 1.29918732 12.04296875 1.31640625 C12.9265657 1.33718735 13.81016266 1.35796844 14.72053528 1.37937927 C17.54277785 1.44475754 20.36511335 1.50370528 23.1875 1.5625 C25.10092106 1.60569637 27.01433273 1.64931102 28.92773438 1.69335938 C33.61839437 1.80042695 38.30914783 1.90172752 43 2 C43 2.33 43 2.66 43 3 C28.81 3.33 14.62 3.66 0 4 C0 2.68 0 1.36 0 0 Z " fill="#031429" transform="translate(764,578)"/>
<path d="M0 0 C1.175625 1.0209375 1.175625 1.0209375 2.375 2.0625 C6.08560413 4.80127924 8.46826406 4.30723634 13 4 C13 4.99 13 5.98 13 7 C4.79411765 7.63122172 4.79411765 7.63122172 1.5625 5.0625 C1.046875 4.381875 0.53125 3.70125 0 3 C-2.52475462 1.73762269 -4.31200466 1.90143596 -7.125 1.9375 C-8.03507813 1.94652344 -8.94515625 1.95554687 -9.8828125 1.96484375 C-10.93082031 1.98224609 -10.93082031 1.98224609 -12 2 C-8.33561586 -1.66438414 -4.85871661 -1.28904726 0 0 Z " fill="#01070D" transform="translate(175,475)"/>
<path d="M0 0 C-3.07517084 11.52164009 -3.07517084 11.52164009 -5 17 C-5.33 17 -5.66 17 -6 17 C-5.47606294 11.13190493 -4.23891142 6.45126259 -2 1 C-7.28 1 -12.56 1 -18 1 C-18 0.67 -18 0.34 -18 0 C-15.3753399 -0.19430855 -12.75053235 -0.38073238 -10.125 -0.5625 C-9.00544922 -0.64661133 -9.00544922 -0.64661133 -7.86328125 -0.73242188 C-2.2265625 -1.11328125 -2.2265625 -1.11328125 0 0 Z " fill="#292D34" transform="translate(641,397)"/>
<path d="M0 0 C9.27649912 3.11390392 15.13267705 11.92597016 20 20 C19.67 20.66 19.34 21.32 19 22 C18.07380859 20.7315625 18.07380859 20.7315625 17.12890625 19.4375 C12.41433074 13.08771416 7.76300733 7.45188839 1.6171875 2.390625 C1.08351563 1.93171875 0.54984375 1.4728125 0 1 C0 0.67 0 0.34 0 0 Z " fill="#01080D" transform="translate(306,347)"/>
<path d="M0 0 C0.99 0.33 1.98 0.66 3 1 C2.67 1.515625 2.34 2.03125 2 2.5625 C0.67989123 5.78026512 0.86757895 8.5570528 1 12 C0.01 12 -0.98 12 -2 12 C-3.40457737 9.19084526 -3.24895157 7.11189466 -3 4 C-1.5 1.625 -1.5 1.625 0 0 Z " fill="#006E9D" transform="translate(219,644)"/>
<path d="M0 0 C0.33 0 0.66 0 1 0 C1.48468708 6.42210386 1.48468708 6.42210386 -0.625 8.9375 C-3.70557508 10.31565201 -5.65737548 10.48746608 -9 10 C-11.4375 8.25 -11.4375 8.25 -13 6 C-12.75 3.75 -12.75 3.75 -12 2 C-11.62875 2.825 -11.2575 3.65 -10.875 4.5 C-10.25625 5.325 -9.6375 6.15 -9 7 C-5.95746492 7.58345476 -5.95746492 7.58345476 -3 7 C-0.64046906 4.64046906 -0.50858587 3.22104383 0 0 Z " fill="#020910" transform="translate(308,463)"/>
<path d="M0 0 C0.66 0.33 1.32 0.66 2 1 C-3.20883242 5.24931066 -6.20064352 6.57781093 -13 6 C-15.5 5 -15.5 5 -17 4 C-17 3.34 -17 2.68 -17 2 C-16.505 2.165 -16.01 2.33 -15.5 2.5 C-10.5634748 3.48730504 -6.54663607 3.84056308 -2.125 1.4375 C-1.073125 0.7259375 -1.073125 0.7259375 0 0 Z " fill="#090B10" transform="translate(788,474)"/>
<path d="M0 0 C1.08062462 3.24187386 0.96405231 3.89709861 0.00390625 7.01171875 C-0.33930664 8.14770508 -0.33930664 8.14770508 -0.68945312 9.30664062 C-0.93630859 10.09232422 -1.18316406 10.87800781 -1.4375 11.6875 C-1.68048828 12.48478516 -1.92347656 13.28207031 -2.17382812 14.10351562 C-2.77479738 16.07139534 -3.3863905 18.03602495 -4 20 C-4.33 20 -4.66 20 -5 20 C-5.19926199 9.83763838 -5.19926199 9.83763838 -4 6 C-3.34 5.67 -2.68 5.34 -2 5 C-1.27840576 3.35636866 -0.60648579 1.68949614 0 0 Z " fill="#009FC3" transform="translate(195,382)"/>
<path d="M0 0 C1.65 0 3.3 0 5 0 C4.01 0.33 3.02 0.66 2 1 C2 3.97 2 6.94 2 10 C3.98 10 5.96 10 8 10 C5 12 5 12 0 12 C0 8.04 0 4.08 0 0 Z " fill="#020307" transform="translate(270,595)"/>
<path d="M0 0 C2.80722691 4.21084037 1.94537893 6.11554218 1 11 C0.01 11.495 0.01 11.495 -1 12 C-1.66 8.7 -2.32 5.4 -3 2 C-2.01 1.34 -1.02 0.68 0 0 Z " fill="#080D15" transform="translate(875,578)"/>
<path d="M0 0 C0.99 0.66 1.98 1.32 3 2 C-4.11389522 9.66742597 -4.11389522 9.66742597 -9 11 C-7.59155282 7.78475695 -5.89655214 5.67816132 -3.375 3.25 C-2.74335938 2.63640625 -2.11171875 2.0228125 -1.4609375 1.390625 C-0.73777344 0.70226562 -0.73777344 0.70226562 0 0 Z " fill="#00AACC" transform="translate(215,350)"/>
<path d="M0 0 C2 1 2 1 3.125 4.0625 C3.41375 5.031875 3.7025 6.00125 4 7 C4.99 5.68 5.98 4.36 7 3 C6 10.42857143 6 10.42857143 5 14 C4.34 14 3.68 14 3 14 C2.49528803 12.23050388 1.99639315 10.45934777 1.5 8.6875 C1.2215625 7.70136719 0.943125 6.71523438 0.65625 5.69921875 C0 3 0 3 0 0 Z " fill="#06070C" transform="translate(683,577)"/>
<path d="M0 0 C0.99 0.33 1.98 0.66 3 1 C3 8.26 3 15.52 3 23 C2.67 23 2.34 23 2 23 C1.93941406 22.01257813 1.87882813 21.02515625 1.81640625 20.0078125 C1.73261719 18.72648437 1.64882812 17.44515625 1.5625 16.125 C1.48128906 14.84882813 1.40007812 13.57265625 1.31640625 12.2578125 C1.20793973 9.11699848 1.20793973 9.11699848 0 7 C-0.04022391 4.6670134 -0.04320247 2.33293334 0 0 Z " fill="#008FB2" transform="translate(189,397)"/>
<path d="M0 0 C0 4.09459203 -1.96927276 6.76750835 -4 10.1875 C-4.57234375 11.16879883 -4.57234375 11.16879883 -5.15625 12.16992188 C-6.09838932 13.78333545 -7.04844266 15.39212298 -8 17 C-9 15 -9 15 -8.44140625 13.0546875 C-8.00634766 11.97574219 -8.00634766 11.97574219 -7.5625 10.875 C-7.27503906 10.15054687 -6.98757812 9.42609375 -6.69140625 8.6796875 C-6.46324219 8.12539063 -6.23507813 7.57109375 -6 7 C-5.34 7 -4.68 7 -4 7 C-3.71125 6.21625 -3.4225 5.4325 -3.125 4.625 C-2 2 -2 2 0 0 Z " fill="#00B2D7" transform="translate(214,367)"/>
<path d="M0 0 C1.125 1.5 1.125 1.5 2 4 C1.57598348 6.7773082 0.81108065 9.29639783 0 12 C-0.99 11.67 -1.98 11.34 -3 11 C-2.69078116 9.54096742 -2.37751201 8.08279278 -2.0625 6.625 C-1.88847656 5.81289063 -1.71445312 5.00078125 -1.53515625 4.1640625 C-1 2 -1 2 0 0 Z " fill="#101722" transform="translate(634,412)"/>
<path d="M0 0 C1.231394 3.69418201 0.64432764 6.2056261 0 10 C3.63 10 7.26 10 11 10 C11 10.33 11 10.66 11 11 C6.71 11 2.42 11 -2 11 C-1.125 2.25 -1.125 2.25 0 0 Z " fill="#0098BC" transform="translate(205,379)"/>
<path d="M0 0 C0.99 0.86625 1.98 1.7325 3 2.625 C6.86190708 5.94197541 10.89447006 8.99283262 15 12 C14.34 12.66 13.68 13.32 13 14 C10.82722848 12.04808712 8.66177539 10.08902463 6.5 8.125 C5.87996094 7.56941406 5.25992188 7.01382813 4.62109375 6.44140625 C4.03457031 5.90644531 3.44804687 5.37148438 2.84375 4.8203125 C2.29912109 4.32805176 1.75449219 3.83579102 1.19335938 3.32861328 C0 2 0 2 0 0 Z " fill="#02060C" transform="translate(206,569)"/>
<path d="M0 0 C3.09537351 1.06737018 3.98455997 1.97518567 5.75 4.8125 C6.94728978 7.86558893 7.28472808 9.77308179 7 13 C6.34 13 5.68 13 5 13 C4.80664062 12.39671875 4.61328125 11.7934375 4.4140625 11.171875 C4.15367187 10.37265625 3.89328125 9.5734375 3.625 8.75 C3.36976563 7.96109375 3.11453125 7.1721875 2.8515625 6.359375 C2.04826333 4.13372042 1.10288338 2.09068328 0 0 Z " fill="#12151B" transform="translate(786,555)"/>
<path d="M0 0 C0.66 0.33 1.32 0.66 2 1 C4.71760108 1.07181821 7.40859388 1.09299506 10.125 1.0625 C11.25615234 1.05573242 11.25615234 1.05573242 12.41015625 1.04882812 C14.27347127 1.03703499 16.13674555 1.01909942 18 1 C18 1.33 18 1.66 18 2 C13.05 2 8.1 2 3 2 C3 2.66 3 3.32 3 4 C2.34 4 1.68 4 1 4 C1 4.66 1 5.32 1 6 C0.34 6 -0.32 6 -1 6 C-0.67 4.02 -0.34 2.04 0 0 Z " fill="#0C1827" transform="translate(431,471)"/>
<path d="M0 0 C5.66710699 1.31793186 7.66437233 3.48709197 11 8 C10.01 8.495 10.01 8.495 9 9 C8.34 8.34 7.68 7.68 7 7 C3.68393433 4.22195575 3.68393433 4.22195575 0 2 C0 1.34 0 0.68 0 0 Z " fill="#00A1C3" transform="translate(307,351)"/>
<path d="M0 0 C0 3 0 3 -0.625 6.0625 C-0.74875 7.031875 -0.8725 8.00125 -1 9 C-0.34 9.66 0.32 10.32 1 11 C-0.65 11 -2.3 11 -4 11 C-4.17754126 7.09409237 -4.20731737 4.31097606 -2 1 C-1.34 0.67 -0.68 0.34 0 0 Z " fill="#080B10" transform="translate(838,438)"/>
<path d="M0 0 C0.33 0.66 0.66 1.32 1 2 C1.66 2 2.32 2 3 2 C3 5.63 3 9.26 3 13 C2.67 13 2.34 13 2 13 C1.34 9.37 0.68 5.74 0 2 C-1.65 2 -3.3 2 -5 2 C-5 1.67 -5 1.34 -5 1 C-3.35 0.67 -1.7 0.34 0 0 Z " fill="#00608B" transform="translate(258,593)"/>
<path d="M0 0 C1.60080151 4.00200378 0.29279692 7.04556236 -1 11 C-3.4294516 7.3558226 -3.16179575 5.28758728 -3 1 C-2.01 0.67 -1.02 0.34 0 0 Z " fill="#05070C" transform="translate(838,579)"/>
<path d="M0 0 C0 0.99 0 1.98 0 3 C-3.08888522 5.05925681 -3.70935927 5.2390374 -7.1875 5.125 C-9.0746875 5.063125 -9.0746875 5.063125 -11 5 C-10.67 4.34 -10.34 3.68 -10 3 C-7.68529088 2.27129528 -5.3494053 1.60760482 -3 1 C-2.01 0.67 -1.02 0.34 0 0 Z " fill="#0096B8" transform="translate(251,389)"/>
<path d="M0 0 C1.32 0 2.64 0 4 0 C5.5625 2.1875 5.5625 2.1875 7 5 C7.5775 5.886875 8.155 6.77375 8.75 7.6875 C9.36875 8.8321875 9.36875 8.8321875 10 10 C9.67 10.66 9.34 11.32 9 12 C8.51789063 11.36191406 8.03578125 10.72382813 7.5390625 10.06640625 C6.90742188 9.24011719 6.27578125 8.41382813 5.625 7.5625 C4.99851562 6.73878906 4.37203125 5.91507812 3.7265625 5.06640625 C2.16246096 2.91471908 2.16246096 2.91471908 0 2 C0 1.34 0 0.68 0 0 Z " fill="#01070C" transform="translate(252,348)"/>
<path d="M0 0 C4.71403788 0.47939368 8.66579301 0.96834048 13 3 C13 3.99 13 4.98 13 6 C12.34 6 11.68 6 11 6 C11 5.34 11 4.68 11 4 C9.1128125 3.8453125 9.1128125 3.8453125 7.1875 3.6875 C4.39500343 3.35141192 3.25566879 3.19974124 1 1.4375 C0.67 0.963125 0.34 0.48875 0 0 Z " fill="#00AED1" transform="translate(280,337)"/>
<path d="M0 0 C3.66336097 1.22112032 4.35042014 2.86720482 6.23046875 6.11328125 C7 8 7 8 7 12 C6.34 12 5.68 12 5 12 C4.54625 10.7625 4.0925 9.525 3.625 8.25 C2.5615993 5.40754505 1.44807517 2.67336954 0 0 Z " fill="#16181D" transform="translate(858,435)"/>
<path d="M0 0 C-2.90092502 1.93395001 -3.89674737 2.30131941 -7.1875 2.625 C-8.445625 2.74875 -9.70375 2.8725 -11 3 C-11.33 2.01 -11.66 1.02 -12 0 C-7.74433453 -1.16063604 -4.3164922 -0.76173392 0 0 Z " fill="#006795" transform="translate(281,581)"/>
<path d="M0 0 C0.99 0.33 1.98 0.66 3 1 C5.56634861 1.22718496 8.11678107 1.41608184 10.6875 1.5625 C11.7403418 1.62727539 11.7403418 1.62727539 12.81445312 1.69335938 C14.54275206 1.7991736 16.2713511 1.90006581 18 2 C18 2.33 18 2.66 18 3 C12.06 3.33 6.12 3.66 0 4 C0 2.68 0 1.36 0 0 Z " fill="#0E1B2C" transform="translate(764,578)"/>
<path d="M0 0 C4.455 0.99 4.455 0.99 9 2 C4.64467851 4.17766075 3.53374042 4.03039555 -1 3 C-0.67 2.01 -0.34 1.02 0 0 Z " fill="#0D1420" transform="translate(773,592)"/>
<path d="M0 0 C0.66 0 1.32 0 2 0 C2.42925781 0.64453125 2.85851562 1.2890625 3.30078125 1.953125 C4.8413383 4.22176756 4.8413383 4.22176756 7.48046875 4.609375 C8.82044922 4.67898438 8.82044922 4.67898438 10.1875 4.75 C11.08855469 4.80671875 11.98960937 4.8634375 12.91796875 4.921875 C13.60503906 4.94765625 14.29210937 4.9734375 15 5 C15 5.33 15 5.66 15 6 C4.89867004 6.6269791 4.89867004 6.6269791 1.3125 4.125 C0 2 0 2 0 0 Z " fill="#171C22" transform="translate(529,590)"/>
<path d="M0 0 C0.99 0 1.98 0 3 0 C3.125 2.875 3.125 2.875 3 6 C2.34 6.66 1.68 7.32 1 8 C0.01 7.67 -0.98 7.34 -2 7 C-1.67 6.21625 -1.34 5.4325 -1 4.625 C0.11866511 2.15667503 0.11866511 2.15667503 0 0 Z " fill="#006C9B" transform="translate(310,648)"/>
<path d="M0 0 C0.66 0.33 1.32 0.66 2 1 C1.67 1.99 1.34 2.98 1 4 C-2.0625 5.1875 -2.0625 5.1875 -5 6 C-5 5.01 -5 4.02 -5 3 C-2.625 1.25 -2.625 1.25 0 0 Z " fill="#0F141D" transform="translate(643,555)"/>
<path d="M0 0 C0.33 0 0.66 0 1 0 C0.88652381 1.97986082 0.7589065 3.95891598 0.625 5.9375 C0.52058594 7.59072266 0.52058594 7.59072266 0.4140625 9.27734375 C0.27742188 10.17582031 0.14078125 11.07429687 0 12 C-0.99 12.495 -0.99 12.495 -2 13 C-2 9.37 -2 5.74 -2 2 C-1.34 2 -0.68 2 0 2 C0 1.34 0 0.68 0 0 Z " fill="#00739B" transform="translate(348,527)"/>
<path d="M0 0 C2 4 2 4 3 7 C1.35 7.66 -0.3 8.32 -2 9 C-1.34 6.03 -0.68 3.06 0 0 Z " fill="#121821" transform="translate(439,447)"/>
<path d="M0 0 C0 3 0 3 0 3 Z M-4 3 C-3.01 3 -2.02 3 -1 3 C-2.75 7.875 -2.75 7.875 -5 9 C-5.33 8.01 -5.66 7.02 -6 6 C-5.34 5.01 -4.68 4.02 -4 3 Z " fill="#006F9A" transform="translate(336,566)"/>
<path d="M0 0 C1.32 0.66 2.64 1.32 4 2 C3.01 2 2.02 2 1 2 C1 5.96 1 9.92 1 14 C0.67 14 0.34 14 0 14 C-0.19393875 11.85473901 -0.37998676 9.70876323 -0.5625 7.5625 C-0.71912109 5.77005859 -0.71912109 5.77005859 -0.87890625 3.94140625 C-0.91886719 2.97074219 -0.95882813 2.00007812 -1 1 C-0.67 0.67 -0.34 0.34 0 0 Z " fill="#005B86" transform="translate(269,593)"/>
<path d="M0 0 C1.32 0.33 2.64 0.66 4 1 C4.33 2.32 4.66 3.64 5 5 C4.01 5 3.02 5 2 5 C0 2 0 2 0 0 Z " fill="#09131F" transform="translate(594,463)"/>
<path d="M0 0 C0.66 0 1.32 0 2 0 C2.66 2.31 3.32 4.62 4 7 C1.525 6.01 1.525 6.01 -1 5 C-0.67 3.35 -0.34 1.7 0 0 Z " fill="#12141B" transform="translate(449,417)"/>
<path d="M0 0 C3.63 0.33 7.26 0.66 11 1 C11 1.33 11 1.66 11 2 C9.54536519 2.38909985 8.08608793 2.76088029 6.625 3.125 C5.40683594 3.43824219 5.40683594 3.43824219 4.1640625 3.7578125 C3.44992188 3.83773438 2.73578125 3.91765625 2 4 C1.34 3.34 0.68 2.68 0 2 C0 1.34 0 0.68 0 0 Z " fill="#0095B5" transform="translate(244,336)"/>
<path d="M0 0 C0.66 0 1.32 0 2 0 C1.45276317 3.37462715 0.9451 5.08235 -1 8 C-2.2077558 4.37673261 -1.54311128 3.35853631 0 0 Z " fill="#0082AE" transform="translate(221,505)"/>
<path d="M0 0 C0.99 0.33 1.98 0.66 3 1 C0.03 3.475 0.03 3.475 -3 6 C-3.66 5.67 -4.32 5.34 -5 5 C-3.35 3.35 -1.7 1.7 0 0 Z " fill="#03050A" transform="translate(771,435)"/>
</svg>
